<svg width="423" height="505" viewBox="0 0 423 505" fill="none" xmlns="http://www.w3.org/2000/svg">
<path d="M211.312 -5C94.8002 -5 0 79.3953 0 183.13C0 210.188 6.22093 236.022 18.4807 259.921C71.3146 362.845 172.612 471.511 202.406 502.36C204.639 504.666 207.893 505.995 211.318 505.995C214.743 505.995 217.997 504.666 220.229 502.36C250.012 471.516 351.309 362.855 404.161 259.921C416.427 236.022 422.642 210.188 422.642 183.13C422.63 79.3953 327.83 -5 211.312 -5ZM211.312 280.845C150.789 280.845 101.544 237.005 101.544 183.124C101.544 129.239 150.789 85.3989 211.312 85.3989C271.835 85.3989 321.08 129.239 321.08 183.124C321.086 237.005 271.841 280.845 211.312 280.845Z" fill="#0249FF" fill-opacity="0.25"/>
</svg>
